<mxfile host="app.diagrams.net" modified="2022-01-07T17:38:00.894Z" agent="5.0 (X11)" etag="HLpUxrs2cAPdR6j0hZhM" version="15.9.6" type="github">
  <diagram id="BInYz6kr3bNaAhW9MgX9" name="Page-1">
    <mxGraphModel dx="4693" dy="2650" grid="1" gridSize="10" guides="1" tooltips="1" connect="1" arrows="1" fold="1" page="1" pageScale="1" pageWidth="827" pageHeight="1169" math="0" shadow="0">
      <root>
        <mxCell id="0" />
        <mxCell id="1" parent="0" />
        <mxCell id="pl169bCZg_OeYpo4SHW6-1" value="heapsort" style="rounded=0;whiteSpace=wrap;html=1;verticalAlign=top;" vertex="1" parent="1">
          <mxGeometry width="690" height="750" as="geometry" />
        </mxCell>
        <mxCell id="pl169bCZg_OeYpo4SHW6-7" style="edgeStyle=orthogonalEdgeStyle;rounded=0;orthogonalLoop=1;jettySize=auto;html=1;exitX=0.5;exitY=1;exitDx=0;exitDy=0;entryX=0.5;entryY=0;entryDx=0;entryDy=0;" edge="1" parent="1" source="pl169bCZg_OeYpo4SHW6-4" target="pl169bCZg_OeYpo4SHW6-6">
          <mxGeometry relative="1" as="geometry" />
        </mxCell>
        <mxCell id="pl169bCZg_OeYpo4SHW6-4" value="for i in range(len(l) // 2 - 1, -1, -1)" style="rounded=0;whiteSpace=wrap;html=1;verticalAlign=top;" vertex="1" parent="1">
          <mxGeometry x="10" y="80" width="210" height="80" as="geometry" />
        </mxCell>
        <mxCell id="pl169bCZg_OeYpo4SHW6-5" style="edgeStyle=orthogonalEdgeStyle;rounded=0;orthogonalLoop=1;jettySize=auto;html=1;exitX=0.5;exitY=1;exitDx=0;exitDy=0;entryX=0.5;entryY=0;entryDx=0;entryDy=0;" edge="1" parent="1" source="pl169bCZg_OeYpo4SHW6-2" target="pl169bCZg_OeYpo4SHW6-4">
          <mxGeometry relative="1" as="geometry" />
        </mxCell>
        <mxCell id="pl169bCZg_OeYpo4SHW6-2" value="heapsort(l)" style="ellipse;whiteSpace=wrap;html=1;" vertex="1" parent="1">
          <mxGeometry x="55" y="30" width="120" height="30" as="geometry" />
        </mxCell>
        <mxCell id="pl169bCZg_OeYpo4SHW6-3" value="heapify(l, len(l), i)" style="shape=parallelogram;perimeter=parallelogramPerimeter;whiteSpace=wrap;html=1;fixedSize=1;" vertex="1" parent="1">
          <mxGeometry x="55" y="115" width="125" height="35" as="geometry" />
        </mxCell>
        <mxCell id="pl169bCZg_OeYpo4SHW6-13" style="edgeStyle=orthogonalEdgeStyle;rounded=0;orthogonalLoop=1;jettySize=auto;html=1;exitX=0.5;exitY=1;exitDx=0;exitDy=0;entryX=0.5;entryY=0;entryDx=0;entryDy=0;" edge="1" parent="1" source="pl169bCZg_OeYpo4SHW6-6" target="pl169bCZg_OeYpo4SHW6-11">
          <mxGeometry relative="1" as="geometry" />
        </mxCell>
        <mxCell id="pl169bCZg_OeYpo4SHW6-6" value="for i in reversed(range(len(l)))" style="rounded=0;whiteSpace=wrap;html=1;verticalAlign=top;" vertex="1" parent="1">
          <mxGeometry x="10" y="180" width="210" height="150" as="geometry" />
        </mxCell>
        <mxCell id="pl169bCZg_OeYpo4SHW6-10" style="edgeStyle=orthogonalEdgeStyle;rounded=0;orthogonalLoop=1;jettySize=auto;html=1;exitX=0.5;exitY=1;exitDx=0;exitDy=0;entryX=0.5;entryY=0;entryDx=0;entryDy=0;" edge="1" parent="1" source="pl169bCZg_OeYpo4SHW6-8" target="pl169bCZg_OeYpo4SHW6-9">
          <mxGeometry relative="1" as="geometry" />
        </mxCell>
        <mxCell id="pl169bCZg_OeYpo4SHW6-8" value="l[i], l[0] = l[0], l[i]&lt;br/&gt;" style="rounded=0;whiteSpace=wrap;html=1;" vertex="1" parent="1">
          <mxGeometry x="55" y="210" width="120" height="30" as="geometry" />
        </mxCell>
        <mxCell id="pl169bCZg_OeYpo4SHW6-9" value="heapify(l, i, 0)" style="shape=parallelogram;perimeter=parallelogramPerimeter;whiteSpace=wrap;html=1;fixedSize=1;" vertex="1" parent="1">
          <mxGeometry x="50" y="260" width="120" height="60" as="geometry" />
        </mxCell>
        <mxCell id="pl169bCZg_OeYpo4SHW6-11" value="return l" style="ellipse;whiteSpace=wrap;html=1;" vertex="1" parent="1">
          <mxGeometry x="55" y="370" width="120" height="80" as="geometry" />
        </mxCell>
        <mxCell id="pl169bCZg_OeYpo4SHW6-14" value="heapify" style="rounded=0;whiteSpace=wrap;html=1;verticalAlign=top;" vertex="1" parent="1">
          <mxGeometry x="240" y="30" width="440" height="680" as="geometry" />
        </mxCell>
        <mxCell id="pl169bCZg_OeYpo4SHW6-19" style="edgeStyle=orthogonalEdgeStyle;rounded=0;orthogonalLoop=1;jettySize=auto;html=1;exitX=0.5;exitY=1;exitDx=0;exitDy=0;" edge="1" parent="1" source="pl169bCZg_OeYpo4SHW6-17" target="pl169bCZg_OeYpo4SHW6-18">
          <mxGeometry relative="1" as="geometry" />
        </mxCell>
        <mxCell id="pl169bCZg_OeYpo4SHW6-17" value="heapify(l, size, index)" style="ellipse;whiteSpace=wrap;html=1;" vertex="1" parent="1">
          <mxGeometry x="390" y="60" width="140" height="30" as="geometry" />
        </mxCell>
        <mxCell id="pl169bCZg_OeYpo4SHW6-21" style="edgeStyle=orthogonalEdgeStyle;rounded=0;orthogonalLoop=1;jettySize=auto;html=1;exitX=0.5;exitY=1;exitDx=0;exitDy=0;entryX=0.5;entryY=0;entryDx=0;entryDy=0;" edge="1" parent="1" source="pl169bCZg_OeYpo4SHW6-18" target="pl169bCZg_OeYpo4SHW6-20">
          <mxGeometry relative="1" as="geometry" />
        </mxCell>
        <mxCell id="pl169bCZg_OeYpo4SHW6-18" value="&lt;div&gt;largest = index&lt;/div&gt;&lt;div&gt;left = 2 * index + 1&lt;/div&gt;&lt;div&gt;right = left + 1&lt;br&gt;&lt;/div&gt;" style="rounded=0;whiteSpace=wrap;html=1;" vertex="1" parent="1">
          <mxGeometry x="400" y="110" width="120" height="60" as="geometry" />
        </mxCell>
        <mxCell id="pl169bCZg_OeYpo4SHW6-23" value="True" style="edgeStyle=orthogonalEdgeStyle;rounded=0;orthogonalLoop=1;jettySize=auto;html=1;exitX=0;exitY=0.5;exitDx=0;exitDy=0;" edge="1" parent="1" source="pl169bCZg_OeYpo4SHW6-20" target="pl169bCZg_OeYpo4SHW6-22">
          <mxGeometry relative="1" as="geometry" />
        </mxCell>
        <mxCell id="pl169bCZg_OeYpo4SHW6-26" value="False" style="edgeStyle=orthogonalEdgeStyle;rounded=0;orthogonalLoop=1;jettySize=auto;html=1;exitX=0.5;exitY=1;exitDx=0;exitDy=0;entryX=0.5;entryY=0;entryDx=0;entryDy=0;" edge="1" parent="1" source="pl169bCZg_OeYpo4SHW6-20" target="pl169bCZg_OeYpo4SHW6-24">
          <mxGeometry relative="1" as="geometry" />
        </mxCell>
        <mxCell id="pl169bCZg_OeYpo4SHW6-20" value="left &amp;lt; size and l[index] &amp;lt; l[left]" style="rhombus;whiteSpace=wrap;html=1;" vertex="1" parent="1">
          <mxGeometry x="450" y="210" width="200" height="55" as="geometry" />
        </mxCell>
        <mxCell id="pl169bCZg_OeYpo4SHW6-27" style="edgeStyle=orthogonalEdgeStyle;rounded=0;orthogonalLoop=1;jettySize=auto;html=1;exitX=0.5;exitY=1;exitDx=0;exitDy=0;entryX=0.5;entryY=0;entryDx=0;entryDy=0;" edge="1" parent="1" source="pl169bCZg_OeYpo4SHW6-22" target="pl169bCZg_OeYpo4SHW6-24">
          <mxGeometry relative="1" as="geometry">
            <Array as="points">
              <mxPoint x="340" y="310" />
              <mxPoint x="550" y="310" />
            </Array>
          </mxGeometry>
        </mxCell>
        <mxCell id="pl169bCZg_OeYpo4SHW6-22" value="        largest = left&lt;br/&gt;" style="rounded=0;whiteSpace=wrap;html=1;" vertex="1" parent="1">
          <mxGeometry x="260" y="223.75" width="120" height="27.5" as="geometry" />
        </mxCell>
        <mxCell id="pl169bCZg_OeYpo4SHW6-29" value="True" style="edgeStyle=orthogonalEdgeStyle;rounded=0;orthogonalLoop=1;jettySize=auto;html=1;exitX=0;exitY=0.5;exitDx=0;exitDy=0;entryX=1;entryY=0.5;entryDx=0;entryDy=0;" edge="1" parent="1" source="pl169bCZg_OeYpo4SHW6-24" target="pl169bCZg_OeYpo4SHW6-28">
          <mxGeometry relative="1" as="geometry" />
        </mxCell>
        <mxCell id="pl169bCZg_OeYpo4SHW6-31" value="False" style="edgeStyle=orthogonalEdgeStyle;rounded=0;orthogonalLoop=1;jettySize=auto;html=1;exitX=0.5;exitY=1;exitDx=0;exitDy=0;entryX=0.5;entryY=0;entryDx=0;entryDy=0;" edge="1" parent="1" source="pl169bCZg_OeYpo4SHW6-24" target="pl169bCZg_OeYpo4SHW6-30">
          <mxGeometry relative="1" as="geometry" />
        </mxCell>
        <mxCell id="pl169bCZg_OeYpo4SHW6-24" value="if right &amp;lt; size and l[largest] &amp;lt; l[right]" style="rhombus;whiteSpace=wrap;html=1;" vertex="1" parent="1">
          <mxGeometry x="430" y="330" width="240" height="60" as="geometry" />
        </mxCell>
        <mxCell id="pl169bCZg_OeYpo4SHW6-32" style="edgeStyle=orthogonalEdgeStyle;rounded=0;orthogonalLoop=1;jettySize=auto;html=1;exitX=0.5;exitY=1;exitDx=0;exitDy=0;entryX=0.5;entryY=0;entryDx=0;entryDy=0;" edge="1" parent="1" source="pl169bCZg_OeYpo4SHW6-28" target="pl169bCZg_OeYpo4SHW6-30">
          <mxGeometry relative="1" as="geometry">
            <Array as="points">
              <mxPoint x="320" y="430" />
              <mxPoint x="550" y="430" />
            </Array>
          </mxGeometry>
        </mxCell>
        <mxCell id="pl169bCZg_OeYpo4SHW6-28" value="        largest = right" style="rounded=0;whiteSpace=wrap;html=1;" vertex="1" parent="1">
          <mxGeometry x="260" y="346.25" width="120" height="27.5" as="geometry" />
        </mxCell>
        <mxCell id="pl169bCZg_OeYpo4SHW6-35" value="False" style="edgeStyle=orthogonalEdgeStyle;rounded=0;orthogonalLoop=1;jettySize=auto;html=1;exitX=0.5;exitY=1;exitDx=0;exitDy=0;entryX=1;entryY=0.5;entryDx=0;entryDy=0;" edge="1" parent="1" source="pl169bCZg_OeYpo4SHW6-30" target="pl169bCZg_OeYpo4SHW6-34">
          <mxGeometry relative="1" as="geometry" />
        </mxCell>
        <mxCell id="pl169bCZg_OeYpo4SHW6-37" value="True" style="edgeStyle=orthogonalEdgeStyle;rounded=0;orthogonalLoop=1;jettySize=auto;html=1;exitX=0;exitY=0.5;exitDx=0;exitDy=0;entryX=0.5;entryY=0;entryDx=0;entryDy=0;" edge="1" parent="1" source="pl169bCZg_OeYpo4SHW6-30" target="pl169bCZg_OeYpo4SHW6-36">
          <mxGeometry relative="1" as="geometry" />
        </mxCell>
        <mxCell id="pl169bCZg_OeYpo4SHW6-30" value="largest != index" style="rhombus;whiteSpace=wrap;html=1;" vertex="1" parent="1">
          <mxGeometry x="430" y="440" width="240" height="30" as="geometry" />
        </mxCell>
        <mxCell id="pl169bCZg_OeYpo4SHW6-34" value="return" style="ellipse;whiteSpace=wrap;html=1;" vertex="1" parent="1">
          <mxGeometry x="400" y="610" width="120" height="80" as="geometry" />
        </mxCell>
        <mxCell id="pl169bCZg_OeYpo4SHW6-39" style="edgeStyle=orthogonalEdgeStyle;rounded=0;orthogonalLoop=1;jettySize=auto;html=1;exitX=0.5;exitY=1;exitDx=0;exitDy=0;entryX=0.5;entryY=0;entryDx=0;entryDy=0;" edge="1" parent="1" source="pl169bCZg_OeYpo4SHW6-36" target="pl169bCZg_OeYpo4SHW6-38">
          <mxGeometry relative="1" as="geometry" />
        </mxCell>
        <mxCell id="pl169bCZg_OeYpo4SHW6-36" value="l[index], l[largest] = l[largest], l[index]" style="rounded=0;whiteSpace=wrap;html=1;" vertex="1" parent="1">
          <mxGeometry x="250" y="480" width="210" height="30" as="geometry" />
        </mxCell>
        <mxCell id="pl169bCZg_OeYpo4SHW6-40" style="edgeStyle=orthogonalEdgeStyle;rounded=0;orthogonalLoop=1;jettySize=auto;html=1;exitX=0.5;exitY=1;exitDx=0;exitDy=0;entryX=0;entryY=0.5;entryDx=0;entryDy=0;" edge="1" parent="1" source="pl169bCZg_OeYpo4SHW6-38" target="pl169bCZg_OeYpo4SHW6-34">
          <mxGeometry relative="1" as="geometry" />
        </mxCell>
        <mxCell id="pl169bCZg_OeYpo4SHW6-38" value="        heapify(l, size, largest)&lt;br/&gt;" style="shape=parallelogram;perimeter=parallelogramPerimeter;whiteSpace=wrap;html=1;fixedSize=1;" vertex="1" parent="1">
          <mxGeometry x="250" y="540" width="210" height="35" as="geometry" />
        </mxCell>
        <mxCell id="pl169bCZg_OeYpo4SHW6-41" value="mergesort" style="rounded=0;whiteSpace=wrap;html=1;verticalAlign=top;" vertex="1" parent="1">
          <mxGeometry x="690" width="1140" height="510" as="geometry" />
        </mxCell>
        <mxCell id="pl169bCZg_OeYpo4SHW6-44" style="edgeStyle=orthogonalEdgeStyle;rounded=0;orthogonalLoop=1;jettySize=auto;html=1;exitX=0.5;exitY=1;exitDx=0;exitDy=0;entryX=0.5;entryY=0;entryDx=0;entryDy=0;" edge="1" parent="1" source="pl169bCZg_OeYpo4SHW6-42" target="pl169bCZg_OeYpo4SHW6-43">
          <mxGeometry relative="1" as="geometry" />
        </mxCell>
        <mxCell id="pl169bCZg_OeYpo4SHW6-42" value="mergesort(m)" style="ellipse;whiteSpace=wrap;html=1;" vertex="1" parent="1">
          <mxGeometry x="806.5" y="30" width="120" height="40" as="geometry" />
        </mxCell>
        <mxCell id="pl169bCZg_OeYpo4SHW6-47" value="1" style="edgeStyle=orthogonalEdgeStyle;rounded=0;orthogonalLoop=1;jettySize=auto;html=1;exitX=0;exitY=0.5;exitDx=0;exitDy=0;entryX=0.5;entryY=0;entryDx=0;entryDy=0;" edge="1" parent="1" source="pl169bCZg_OeYpo4SHW6-43" target="pl169bCZg_OeYpo4SHW6-45">
          <mxGeometry relative="1" as="geometry" />
        </mxCell>
        <mxCell id="pl169bCZg_OeYpo4SHW6-50" value="2" style="edgeStyle=orthogonalEdgeStyle;rounded=0;orthogonalLoop=1;jettySize=auto;html=1;exitX=0.5;exitY=1;exitDx=0;exitDy=0;entryX=0.5;entryY=0;entryDx=0;entryDy=0;" edge="1" parent="1" source="pl169bCZg_OeYpo4SHW6-43" target="pl169bCZg_OeYpo4SHW6-49">
          <mxGeometry relative="1" as="geometry" />
        </mxCell>
        <mxCell id="pl169bCZg_OeYpo4SHW6-52" value="case _" style="edgeStyle=orthogonalEdgeStyle;rounded=0;orthogonalLoop=1;jettySize=auto;html=1;exitX=1;exitY=0.5;exitDx=0;exitDy=0;entryX=0.5;entryY=0;entryDx=0;entryDy=0;" edge="1" parent="1" source="pl169bCZg_OeYpo4SHW6-43" target="pl169bCZg_OeYpo4SHW6-51">
          <mxGeometry relative="1" as="geometry" />
        </mxCell>
        <mxCell id="pl169bCZg_OeYpo4SHW6-43" value="match len(m)" style="rhombus;whiteSpace=wrap;html=1;" vertex="1" parent="1">
          <mxGeometry x="820" y="110" width="93" height="80" as="geometry" />
        </mxCell>
        <mxCell id="pl169bCZg_OeYpo4SHW6-45" value="return m" style="ellipse;whiteSpace=wrap;html=1;" vertex="1" parent="1">
          <mxGeometry x="700" y="426.88" width="120" height="56.25" as="geometry" />
        </mxCell>
        <mxCell id="pl169bCZg_OeYpo4SHW6-49" value="return [min(m), max(m)]" style="ellipse;whiteSpace=wrap;html=1;" vertex="1" parent="1">
          <mxGeometry x="791.5" y="266.25" width="150" height="80" as="geometry" />
        </mxCell>
        <mxCell id="pl169bCZg_OeYpo4SHW6-55" style="edgeStyle=orthogonalEdgeStyle;rounded=0;orthogonalLoop=1;jettySize=auto;html=1;exitX=0.5;exitY=1;exitDx=0;exitDy=0;entryX=0.5;entryY=0;entryDx=0;entryDy=0;" edge="1" parent="1" source="pl169bCZg_OeYpo4SHW6-51" target="pl169bCZg_OeYpo4SHW6-54">
          <mxGeometry relative="1" as="geometry" />
        </mxCell>
        <mxCell id="pl169bCZg_OeYpo4SHW6-51" value="divider = len(m) // 2" style="rounded=0;whiteSpace=wrap;html=1;" vertex="1" parent="1">
          <mxGeometry x="1006.5" y="225" width="120" height="35" as="geometry" />
        </mxCell>
        <mxCell id="pl169bCZg_OeYpo4SHW6-56" style="edgeStyle=orthogonalEdgeStyle;rounded=0;orthogonalLoop=1;jettySize=auto;html=1;exitX=0.5;exitY=1;exitDx=0;exitDy=0;entryX=0.5;entryY=0;entryDx=0;entryDy=0;" edge="1" parent="1" source="pl169bCZg_OeYpo4SHW6-54" target="pl169bCZg_OeYpo4SHW6-45">
          <mxGeometry relative="1" as="geometry" />
        </mxCell>
        <mxCell id="pl169bCZg_OeYpo4SHW6-54" value="            merge(mergesort(m[divider:]), mergesort(m[:divider]))" style="shape=parallelogram;perimeter=parallelogramPerimeter;whiteSpace=wrap;html=1;fixedSize=1;" vertex="1" parent="1">
          <mxGeometry x="941.5" y="290" width="250" height="60" as="geometry" />
        </mxCell>
        <mxCell id="pl169bCZg_OeYpo4SHW6-57" value="merge" style="rounded=0;whiteSpace=wrap;html=1;verticalAlign=top;" vertex="1" parent="1">
          <mxGeometry x="1200" y="30" width="620" height="470" as="geometry" />
        </mxCell>
        <mxCell id="pl169bCZg_OeYpo4SHW6-60" style="edgeStyle=orthogonalEdgeStyle;rounded=0;orthogonalLoop=1;jettySize=auto;html=1;exitX=0.5;exitY=1;exitDx=0;exitDy=0;entryX=0.5;entryY=0;entryDx=0;entryDy=0;" edge="1" parent="1" source="pl169bCZg_OeYpo4SHW6-58" target="pl169bCZg_OeYpo4SHW6-59">
          <mxGeometry relative="1" as="geometry" />
        </mxCell>
        <mxCell id="pl169bCZg_OeYpo4SHW6-58" value="merge(a, b)" style="ellipse;whiteSpace=wrap;html=1;" vertex="1" parent="1">
          <mxGeometry x="1370" y="60" width="120" height="40" as="geometry" />
        </mxCell>
        <mxCell id="pl169bCZg_OeYpo4SHW6-62" style="edgeStyle=orthogonalEdgeStyle;rounded=0;orthogonalLoop=1;jettySize=auto;html=1;exitX=0.5;exitY=1;exitDx=0;exitDy=0;" edge="1" parent="1" source="pl169bCZg_OeYpo4SHW6-59" target="pl169bCZg_OeYpo4SHW6-61">
          <mxGeometry relative="1" as="geometry" />
        </mxCell>
        <mxCell id="pl169bCZg_OeYpo4SHW6-59" value="&lt;div&gt;index_a = 0&lt;/div&gt;&lt;div&gt;index_b = 0&lt;/div&gt;&lt;div&gt;res = []&lt;br&gt;&lt;/div&gt;" style="rounded=0;whiteSpace=wrap;html=1;" vertex="1" parent="1">
          <mxGeometry x="1370" y="130" width="120" height="60" as="geometry" />
        </mxCell>
        <mxCell id="pl169bCZg_OeYpo4SHW6-64" value="False" style="edgeStyle=orthogonalEdgeStyle;rounded=0;orthogonalLoop=1;jettySize=auto;html=1;exitX=0;exitY=0.5;exitDx=0;exitDy=0;entryX=0.5;entryY=0;entryDx=0;entryDy=0;" edge="1" parent="1" source="pl169bCZg_OeYpo4SHW6-61" target="pl169bCZg_OeYpo4SHW6-63">
          <mxGeometry relative="1" as="geometry" />
        </mxCell>
        <mxCell id="pl169bCZg_OeYpo4SHW6-68" value="True" style="edgeStyle=orthogonalEdgeStyle;rounded=0;orthogonalLoop=1;jettySize=auto;html=1;exitX=0.5;exitY=1;exitDx=0;exitDy=0;entryX=0.5;entryY=0;entryDx=0;entryDy=0;" edge="1" parent="1" source="pl169bCZg_OeYpo4SHW6-61" target="pl169bCZg_OeYpo4SHW6-67">
          <mxGeometry relative="1" as="geometry" />
        </mxCell>
        <mxCell id="pl169bCZg_OeYpo4SHW6-61" value="index_a + 1 &amp;lt;= len(a) and index_b + 1 &amp;lt;= len(b)" style="rhombus;whiteSpace=wrap;html=1;" vertex="1" parent="1">
          <mxGeometry x="1275" y="223.75" width="310" height="80" as="geometry" />
        </mxCell>
        <mxCell id="pl169bCZg_OeYpo4SHW6-66" style="edgeStyle=orthogonalEdgeStyle;rounded=0;orthogonalLoop=1;jettySize=auto;html=1;exitX=0.5;exitY=1;exitDx=0;exitDy=0;entryX=0.5;entryY=0;entryDx=0;entryDy=0;" edge="1" parent="1" source="pl169bCZg_OeYpo4SHW6-63" target="pl169bCZg_OeYpo4SHW6-65">
          <mxGeometry relative="1" as="geometry" />
        </mxCell>
        <mxCell id="pl169bCZg_OeYpo4SHW6-63" value="res += a[index_a:] + b[index_b:]" style="rounded=0;whiteSpace=wrap;html=1;" vertex="1" parent="1">
          <mxGeometry x="1210" y="360" width="140" height="60" as="geometry" />
        </mxCell>
        <mxCell id="pl169bCZg_OeYpo4SHW6-65" value="return res" style="ellipse;whiteSpace=wrap;html=1;" vertex="1" parent="1">
          <mxGeometry x="1220" y="460" width="120" height="35.01" as="geometry" />
        </mxCell>
        <mxCell id="pl169bCZg_OeYpo4SHW6-70" value="True" style="edgeStyle=orthogonalEdgeStyle;rounded=0;orthogonalLoop=1;jettySize=auto;html=1;exitX=0;exitY=0.5;exitDx=0;exitDy=0;entryX=0;entryY=0.5;entryDx=0;entryDy=0;" edge="1" parent="1" source="pl169bCZg_OeYpo4SHW6-67" target="pl169bCZg_OeYpo4SHW6-69">
          <mxGeometry relative="1" as="geometry" />
        </mxCell>
        <mxCell id="pl169bCZg_OeYpo4SHW6-72" value="False" style="edgeStyle=orthogonalEdgeStyle;rounded=0;orthogonalLoop=1;jettySize=auto;html=1;exitX=1;exitY=0.5;exitDx=0;exitDy=0;entryX=0;entryY=0.5;entryDx=0;entryDy=0;" edge="1" parent="1" source="pl169bCZg_OeYpo4SHW6-67" target="pl169bCZg_OeYpo4SHW6-71">
          <mxGeometry relative="1" as="geometry" />
        </mxCell>
        <mxCell id="pl169bCZg_OeYpo4SHW6-67" value="a[index_a] &amp;lt;= b[index_b]" style="rhombus;whiteSpace=wrap;html=1;" vertex="1" parent="1">
          <mxGeometry x="1390" y="335" width="190" height="45" as="geometry" />
        </mxCell>
        <mxCell id="pl169bCZg_OeYpo4SHW6-74" style="edgeStyle=orthogonalEdgeStyle;rounded=0;orthogonalLoop=1;jettySize=auto;html=1;exitX=1;exitY=0.5;exitDx=0;exitDy=0;entryX=1;entryY=0.5;entryDx=0;entryDy=0;" edge="1" parent="1" source="pl169bCZg_OeYpo4SHW6-69" target="pl169bCZg_OeYpo4SHW6-61">
          <mxGeometry relative="1" as="geometry">
            <Array as="points">
              <mxPoint x="1770" y="450" />
              <mxPoint x="1770" y="264" />
            </Array>
          </mxGeometry>
        </mxCell>
        <mxCell id="pl169bCZg_OeYpo4SHW6-69" value="            res.append(a[index_a])&lt;br/&gt;            index_a += 1&lt;br/&gt;" style="rounded=0;whiteSpace=wrap;html=1;" vertex="1" parent="1">
          <mxGeometry x="1400" y="420" width="150" height="60" as="geometry" />
        </mxCell>
        <mxCell id="pl169bCZg_OeYpo4SHW6-73" style="edgeStyle=orthogonalEdgeStyle;rounded=0;orthogonalLoop=1;jettySize=auto;html=1;exitX=1;exitY=0.5;exitDx=0;exitDy=0;entryX=1;entryY=0.5;entryDx=0;entryDy=0;" edge="1" parent="1" source="pl169bCZg_OeYpo4SHW6-71" target="pl169bCZg_OeYpo4SHW6-61">
          <mxGeometry relative="1" as="geometry" />
        </mxCell>
        <mxCell id="pl169bCZg_OeYpo4SHW6-71" value="            res.append(b[index_b])&lt;br/&gt;            index_b += 1&lt;br/&gt;" style="rounded=0;whiteSpace=wrap;html=1;" vertex="1" parent="1">
          <mxGeometry x="1620" y="373.75" width="130" height="60" as="geometry" />
        </mxCell>
        <mxCell id="pl169bCZg_OeYpo4SHW6-75" value="quicksort" style="rounded=0;whiteSpace=wrap;html=1;verticalAlign=top;" vertex="1" parent="1">
          <mxGeometry x="1830" width="570" height="510" as="geometry" />
        </mxCell>
        <mxCell id="pl169bCZg_OeYpo4SHW6-78" style="edgeStyle=orthogonalEdgeStyle;rounded=0;orthogonalLoop=1;jettySize=auto;html=1;exitX=0.5;exitY=1;exitDx=0;exitDy=0;entryX=0.5;entryY=0;entryDx=0;entryDy=0;" edge="1" parent="1" source="pl169bCZg_OeYpo4SHW6-76" target="pl169bCZg_OeYpo4SHW6-77">
          <mxGeometry relative="1" as="geometry" />
        </mxCell>
        <mxCell id="pl169bCZg_OeYpo4SHW6-76" value="quicksort(arr)" style="ellipse;whiteSpace=wrap;html=1;" vertex="1" parent="1">
          <mxGeometry x="1920" y="35" width="120" height="35" as="geometry" />
        </mxCell>
        <mxCell id="pl169bCZg_OeYpo4SHW6-80" value="False" style="edgeStyle=orthogonalEdgeStyle;rounded=0;orthogonalLoop=1;jettySize=auto;html=1;exitX=0;exitY=0.5;exitDx=0;exitDy=0;entryX=0.5;entryY=0;entryDx=0;entryDy=0;" edge="1" parent="1" source="pl169bCZg_OeYpo4SHW6-77" target="pl169bCZg_OeYpo4SHW6-79">
          <mxGeometry relative="1" as="geometry" />
        </mxCell>
        <mxCell id="pl169bCZg_OeYpo4SHW6-82" value="True" style="edgeStyle=orthogonalEdgeStyle;rounded=0;orthogonalLoop=1;jettySize=auto;html=1;exitX=1;exitY=0.5;exitDx=0;exitDy=0;entryX=0.5;entryY=0;entryDx=0;entryDy=0;" edge="1" parent="1" source="pl169bCZg_OeYpo4SHW6-77" target="pl169bCZg_OeYpo4SHW6-81">
          <mxGeometry relative="1" as="geometry" />
        </mxCell>
        <mxCell id="pl169bCZg_OeYpo4SHW6-77" value="len(arr) &amp;gt; 1" style="rhombus;whiteSpace=wrap;html=1;" vertex="1" parent="1">
          <mxGeometry x="1940" y="90" width="80" height="80" as="geometry" />
        </mxCell>
        <mxCell id="pl169bCZg_OeYpo4SHW6-79" value="return list(arr)" style="ellipse;whiteSpace=wrap;html=1;" vertex="1" parent="1">
          <mxGeometry x="1840" y="202.5" width="120" height="80" as="geometry" />
        </mxCell>
        <mxCell id="pl169bCZg_OeYpo4SHW6-84" style="edgeStyle=orthogonalEdgeStyle;rounded=0;orthogonalLoop=1;jettySize=auto;html=1;exitX=0.5;exitY=1;exitDx=0;exitDy=0;entryX=0.5;entryY=0;entryDx=0;entryDy=0;" edge="1" parent="1" source="pl169bCZg_OeYpo4SHW6-81" target="pl169bCZg_OeYpo4SHW6-83">
          <mxGeometry relative="1" as="geometry" />
        </mxCell>
        <mxCell id="pl169bCZg_OeYpo4SHW6-81" value="p = arr[-1]" style="rounded=0;whiteSpace=wrap;html=1;" vertex="1" parent="1">
          <mxGeometry x="2055" y="170" width="120" height="60" as="geometry" />
        </mxCell>
        <mxCell id="pl169bCZg_OeYpo4SHW6-83" value="        return quicksort([x for x in arr if x &amp;lt; p]) + list([x for x in arr if x == p]) + quicksort([x for x in arr if x &amp;gt; p])&lt;br/&gt;" style="ellipse;whiteSpace=wrap;html=1;" vertex="1" parent="1">
          <mxGeometry x="1835" y="300" width="555" height="80" as="geometry" />
        </mxCell>
        <mxCell id="pl169bCZg_OeYpo4SHW6-85" value="insertsprt" style="rounded=0;whiteSpace=wrap;html=1;verticalAlign=top;" vertex="1" parent="1">
          <mxGeometry x="2400" width="610" height="630" as="geometry" />
        </mxCell>
        <mxCell id="pl169bCZg_OeYpo4SHW6-88" style="edgeStyle=orthogonalEdgeStyle;rounded=0;orthogonalLoop=1;jettySize=auto;html=1;exitX=0.5;exitY=1;exitDx=0;exitDy=0;entryX=0.5;entryY=0;entryDx=0;entryDy=0;" edge="1" parent="1" source="pl169bCZg_OeYpo4SHW6-86" target="pl169bCZg_OeYpo4SHW6-87">
          <mxGeometry relative="1" as="geometry" />
        </mxCell>
        <mxCell id="pl169bCZg_OeYpo4SHW6-86" value="insertsort(arr)" style="ellipse;whiteSpace=wrap;html=1;" vertex="1" parent="1">
          <mxGeometry x="2645" y="50" width="120" height="40" as="geometry" />
        </mxCell>
        <mxCell id="pl169bCZg_OeYpo4SHW6-90" style="edgeStyle=orthogonalEdgeStyle;rounded=0;orthogonalLoop=1;jettySize=auto;html=1;exitX=0.5;exitY=1;exitDx=0;exitDy=0;entryX=0.5;entryY=0;entryDx=0;entryDy=0;" edge="1" parent="1" source="pl169bCZg_OeYpo4SHW6-87" target="pl169bCZg_OeYpo4SHW6-89">
          <mxGeometry relative="1" as="geometry" />
        </mxCell>
        <mxCell id="pl169bCZg_OeYpo4SHW6-87" value="res = []" style="rounded=0;whiteSpace=wrap;html=1;" vertex="1" parent="1">
          <mxGeometry x="2645" y="115" width="120" height="30" as="geometry" />
        </mxCell>
        <mxCell id="pl169bCZg_OeYpo4SHW6-92" value="False" style="edgeStyle=orthogonalEdgeStyle;rounded=0;orthogonalLoop=1;jettySize=auto;html=1;exitX=0;exitY=0.5;exitDx=0;exitDy=0;entryX=1;entryY=0.5;entryDx=0;entryDy=0;" edge="1" parent="1" source="pl169bCZg_OeYpo4SHW6-89" target="pl169bCZg_OeYpo4SHW6-91">
          <mxGeometry relative="1" as="geometry" />
        </mxCell>
        <mxCell id="pl169bCZg_OeYpo4SHW6-94" value="True" style="edgeStyle=orthogonalEdgeStyle;rounded=0;orthogonalLoop=1;jettySize=auto;html=1;exitX=1;exitY=0.5;exitDx=0;exitDy=0;entryX=0;entryY=0.5;entryDx=0;entryDy=0;" edge="1" parent="1" source="pl169bCZg_OeYpo4SHW6-89" target="pl169bCZg_OeYpo4SHW6-93">
          <mxGeometry relative="1" as="geometry" />
        </mxCell>
        <mxCell id="pl169bCZg_OeYpo4SHW6-89" value="len(arr) &amp;gt; 0" style="rhombus;whiteSpace=wrap;html=1;" vertex="1" parent="1">
          <mxGeometry x="2665" y="170" width="80" height="80" as="geometry" />
        </mxCell>
        <mxCell id="pl169bCZg_OeYpo4SHW6-91" value="return res" style="ellipse;whiteSpace=wrap;html=1;" vertex="1" parent="1">
          <mxGeometry x="2470" y="185" width="120" height="50" as="geometry" />
        </mxCell>
        <mxCell id="pl169bCZg_OeYpo4SHW6-106" style="edgeStyle=orthogonalEdgeStyle;rounded=0;orthogonalLoop=1;jettySize=auto;html=1;exitX=0.5;exitY=1;exitDx=0;exitDy=0;entryX=0.5;entryY=0;entryDx=0;entryDy=0;" edge="1" parent="1" source="pl169bCZg_OeYpo4SHW6-93" target="pl169bCZg_OeYpo4SHW6-95">
          <mxGeometry relative="1" as="geometry" />
        </mxCell>
        <mxCell id="pl169bCZg_OeYpo4SHW6-93" value="&lt;div&gt;min = arr[0]&lt;/div&gt;&lt;div&gt;index = 0&lt;br&gt;&lt;/div&gt;" style="rounded=0;whiteSpace=wrap;html=1;" vertex="1" parent="1">
          <mxGeometry x="2820" y="180" width="120" height="60" as="geometry" />
        </mxCell>
        <mxCell id="pl169bCZg_OeYpo4SHW6-108" style="edgeStyle=orthogonalEdgeStyle;rounded=0;orthogonalLoop=1;jettySize=auto;html=1;exitX=0.5;exitY=1;exitDx=0;exitDy=0;entryX=0.5;entryY=0;entryDx=0;entryDy=0;" edge="1" parent="1" source="pl169bCZg_OeYpo4SHW6-95" target="pl169bCZg_OeYpo4SHW6-107">
          <mxGeometry relative="1" as="geometry" />
        </mxCell>
        <mxCell id="pl169bCZg_OeYpo4SHW6-95" value="        for i, x in enumerate(arr)" style="rounded=0;whiteSpace=wrap;html=1;verticalAlign=bottom;" vertex="1" parent="1">
          <mxGeometry x="2680" y="270" width="260" height="200" as="geometry" />
        </mxCell>
        <mxCell id="pl169bCZg_OeYpo4SHW6-98" value="True" style="edgeStyle=orthogonalEdgeStyle;rounded=0;orthogonalLoop=1;jettySize=auto;html=1;exitX=1;exitY=0.5;exitDx=0;exitDy=0;entryX=0.5;entryY=0;entryDx=0;entryDy=0;" edge="1" parent="1" source="pl169bCZg_OeYpo4SHW6-96" target="pl169bCZg_OeYpo4SHW6-97">
          <mxGeometry relative="1" as="geometry" />
        </mxCell>
        <mxCell id="pl169bCZg_OeYpo4SHW6-104" value="False" style="edgeStyle=orthogonalEdgeStyle;rounded=0;orthogonalLoop=1;jettySize=auto;html=1;" edge="1" parent="1" source="pl169bCZg_OeYpo4SHW6-96" target="pl169bCZg_OeYpo4SHW6-99">
          <mxGeometry relative="1" as="geometry" />
        </mxCell>
        <mxCell id="pl169bCZg_OeYpo4SHW6-96" value="x &amp;lt; min" style="rhombus;whiteSpace=wrap;html=1;" vertex="1" parent="1">
          <mxGeometry x="2690" y="280" width="80" height="40" as="geometry" />
        </mxCell>
        <mxCell id="pl169bCZg_OeYpo4SHW6-103" style="edgeStyle=orthogonalEdgeStyle;rounded=0;orthogonalLoop=1;jettySize=auto;html=1;exitX=0.5;exitY=1;exitDx=0;exitDy=0;entryX=1;entryY=0.5;entryDx=0;entryDy=0;" edge="1" parent="1" source="pl169bCZg_OeYpo4SHW6-97" target="pl169bCZg_OeYpo4SHW6-99">
          <mxGeometry relative="1" as="geometry" />
        </mxCell>
        <mxCell id="pl169bCZg_OeYpo4SHW6-97" value="&lt;div&gt;min = x&lt;/div&gt;&lt;div&gt;index = i&lt;br&gt;&lt;/div&gt;" style="rounded=0;whiteSpace=wrap;html=1;" vertex="1" parent="1">
          <mxGeometry x="2800" y="320" width="120" height="60" as="geometry" />
        </mxCell>
        <mxCell id="pl169bCZg_OeYpo4SHW6-99" value="return" style="ellipse;whiteSpace=wrap;html=1;" vertex="1" parent="1">
          <mxGeometry x="2695" y="393.75" width="70" height="40" as="geometry" />
        </mxCell>
        <mxCell id="pl169bCZg_OeYpo4SHW6-109" style="edgeStyle=orthogonalEdgeStyle;rounded=0;orthogonalLoop=1;jettySize=auto;html=1;exitX=0.5;exitY=1;exitDx=0;exitDy=0;entryX=0.5;entryY=0;entryDx=0;entryDy=0;" edge="1" parent="1" source="pl169bCZg_OeYpo4SHW6-107" target="pl169bCZg_OeYpo4SHW6-89">
          <mxGeometry relative="1" as="geometry">
            <Array as="points">
              <mxPoint x="2810" y="605" />
              <mxPoint x="2970" y="605" />
              <mxPoint x="2970" y="150" />
              <mxPoint x="2705" y="150" />
            </Array>
          </mxGeometry>
        </mxCell>
        <mxCell id="pl169bCZg_OeYpo4SHW6-107" value="del arr[index]" style="rounded=0;whiteSpace=wrap;html=1;" vertex="1" parent="1">
          <mxGeometry x="2750" y="525" width="120" height="60" as="geometry" />
        </mxCell>
        <mxCell id="pl169bCZg_OeYpo4SHW6-110" value="bubblesort" style="rounded=0;whiteSpace=wrap;html=1;verticalAlign=top;" vertex="1" parent="1">
          <mxGeometry x="3010" width="560" height="570" as="geometry" />
        </mxCell>
        <mxCell id="pl169bCZg_OeYpo4SHW6-113" style="edgeStyle=orthogonalEdgeStyle;rounded=0;orthogonalLoop=1;jettySize=auto;html=1;exitX=0.5;exitY=1;exitDx=0;exitDy=0;entryX=0.5;entryY=0;entryDx=0;entryDy=0;" edge="1" parent="1" source="pl169bCZg_OeYpo4SHW6-111" target="pl169bCZg_OeYpo4SHW6-112">
          <mxGeometry relative="1" as="geometry" />
        </mxCell>
        <mxCell id="pl169bCZg_OeYpo4SHW6-111" value="bubblesort(A)" style="ellipse;whiteSpace=wrap;html=1;" vertex="1" parent="1">
          <mxGeometry x="3230" y="50" width="120" height="50" as="geometry" />
        </mxCell>
        <mxCell id="pl169bCZg_OeYpo4SHW6-115" style="edgeStyle=orthogonalEdgeStyle;rounded=0;orthogonalLoop=1;jettySize=auto;html=1;exitX=0.5;exitY=1;exitDx=0;exitDy=0;entryX=0.5;entryY=0;entryDx=0;entryDy=0;" edge="1" parent="1" source="pl169bCZg_OeYpo4SHW6-112" target="pl169bCZg_OeYpo4SHW6-114">
          <mxGeometry relative="1" as="geometry" />
        </mxCell>
        <mxCell id="pl169bCZg_OeYpo4SHW6-112" value="swapped = True" style="rounded=0;whiteSpace=wrap;html=1;" vertex="1" parent="1">
          <mxGeometry x="3230" y="130" width="120" height="60" as="geometry" />
        </mxCell>
        <mxCell id="pl169bCZg_OeYpo4SHW6-123" style="edgeStyle=orthogonalEdgeStyle;rounded=0;orthogonalLoop=1;jettySize=auto;html=1;exitX=0.5;exitY=1;exitDx=0;exitDy=0;" edge="1" parent="1" source="pl169bCZg_OeYpo4SHW6-114" target="pl169bCZg_OeYpo4SHW6-122">
          <mxGeometry relative="1" as="geometry" />
        </mxCell>
        <mxCell id="pl169bCZg_OeYpo4SHW6-114" value="for i in range(1, n)" style="rounded=0;whiteSpace=wrap;html=1;verticalAlign=bottom;" vertex="1" parent="1">
          <mxGeometry x="3120" y="230" width="340" height="190" as="geometry" />
        </mxCell>
        <mxCell id="pl169bCZg_OeYpo4SHW6-118" value="True" style="edgeStyle=orthogonalEdgeStyle;rounded=0;orthogonalLoop=1;jettySize=auto;html=1;exitX=1;exitY=0.5;exitDx=0;exitDy=0;entryX=0.5;entryY=0;entryDx=0;entryDy=0;" edge="1" parent="1" source="pl169bCZg_OeYpo4SHW6-116" target="pl169bCZg_OeYpo4SHW6-117">
          <mxGeometry relative="1" as="geometry" />
        </mxCell>
        <mxCell id="pl169bCZg_OeYpo4SHW6-120" value="False" style="edgeStyle=orthogonalEdgeStyle;rounded=0;orthogonalLoop=1;jettySize=auto;html=1;exitX=0;exitY=0.5;exitDx=0;exitDy=0;entryX=0.5;entryY=0;entryDx=0;entryDy=0;" edge="1" parent="1" source="pl169bCZg_OeYpo4SHW6-116" target="pl169bCZg_OeYpo4SHW6-119">
          <mxGeometry relative="1" as="geometry" />
        </mxCell>
        <mxCell id="pl169bCZg_OeYpo4SHW6-116" value="A[i - 1] &amp;gt; A[i]" style="rhombus;whiteSpace=wrap;html=1;" vertex="1" parent="1">
          <mxGeometry x="3250" y="248.75" width="80" height="55" as="geometry" />
        </mxCell>
        <mxCell id="pl169bCZg_OeYpo4SHW6-121" style="edgeStyle=orthogonalEdgeStyle;rounded=0;orthogonalLoop=1;jettySize=auto;html=1;exitX=0.5;exitY=1;exitDx=0;exitDy=0;entryX=1;entryY=0.5;entryDx=0;entryDy=0;" edge="1" parent="1" source="pl169bCZg_OeYpo4SHW6-117" target="pl169bCZg_OeYpo4SHW6-119">
          <mxGeometry relative="1" as="geometry" />
        </mxCell>
        <mxCell id="pl169bCZg_OeYpo4SHW6-117" value="&lt;div&gt;                A[i-1], A[i] = A[i], A[i-1]&lt;br/&gt;&lt;/div&gt;&lt;div&gt;swapped = True&lt;/div&gt;" style="rounded=0;whiteSpace=wrap;html=1;" vertex="1" parent="1">
          <mxGeometry x="3320" y="300" width="130" height="60" as="geometry" />
        </mxCell>
        <mxCell id="pl169bCZg_OeYpo4SHW6-119" value="return" style="ellipse;whiteSpace=wrap;html=1;" vertex="1" parent="1">
          <mxGeometry x="3130" y="360" width="90" height="56.25" as="geometry" />
        </mxCell>
        <mxCell id="pl169bCZg_OeYpo4SHW6-124" value="False" style="edgeStyle=orthogonalEdgeStyle;rounded=0;orthogonalLoop=1;jettySize=auto;html=1;exitX=0;exitY=0.5;exitDx=0;exitDy=0;entryX=0.5;entryY=0;entryDx=0;entryDy=0;" edge="1" parent="1" source="pl169bCZg_OeYpo4SHW6-122" target="pl169bCZg_OeYpo4SHW6-112">
          <mxGeometry relative="1" as="geometry">
            <Array as="points">
              <mxPoint x="3080" y="510" />
              <mxPoint x="3080" y="110" />
              <mxPoint x="3290" y="110" />
            </Array>
          </mxGeometry>
        </mxCell>
        <mxCell id="pl169bCZg_OeYpo4SHW6-126" style="edgeStyle=orthogonalEdgeStyle;rounded=0;orthogonalLoop=1;jettySize=auto;html=1;exitX=1;exitY=0.5;exitDx=0;exitDy=0;entryX=0;entryY=0.5;entryDx=0;entryDy=0;" edge="1" parent="1" source="pl169bCZg_OeYpo4SHW6-122" target="pl169bCZg_OeYpo4SHW6-125">
          <mxGeometry relative="1" as="geometry" />
        </mxCell>
        <mxCell id="pl169bCZg_OeYpo4SHW6-122" value="!swapped" style="rhombus;whiteSpace=wrap;html=1;" vertex="1" parent="1">
          <mxGeometry x="3250" y="470" width="80" height="80" as="geometry" />
        </mxCell>
        <mxCell id="pl169bCZg_OeYpo4SHW6-125" value="return A" style="ellipse;whiteSpace=wrap;html=1;" vertex="1" parent="1">
          <mxGeometry x="3380" y="470" width="120" height="80" as="geometry" />
        </mxCell>
      </root>
    </mxGraphModel>
  </diagram>
</mxfile>
